<?xml version="1.0" standalone="no"?>
<!DOCTYPE svg PUBLIC "-//W3C//DTD SVG 20010904//EN"
 "http://www.w3.org/TR/2001/REC-SVG-20010904/DTD/svg10.dtd">
<svg version="1.0" xmlns="http://www.w3.org/2000/svg"
 width="750.000000pt" height="750.000000pt" viewBox="0 0 750.000000 750.000000"
 preserveAspectRatio="xMidYMid meet">

<g transform="translate(0.000000,750.000000) scale(0.100000,-0.100000)"
fill="#000000" stroke="none">
<path d="M2622 4877 l-1122 -1122 1125 -1125 1125 -1125 1122 1123 1123 1122
-1125 1125 -1125 1125 -1123 -1123z m2126 -130 l992 -992 -998 -998 -997 -997
-995 995 -995 995 995 995 c547 547 997 995 1000 995 3 0 452 -447 998 -993z"/>
<path d="M2620 3780 l0 -620 390 0 390 0 0 100 0 100 -285 0 -285 0 0 520 0
520 -105 0 -105 0 0 -620z"/>
<path d="M3630 3780 l0 -620 105 0 105 0 0 255 0 255 308 -2 307 -3 3 -252 2
-253 100 0 100 0 0 620 0 620 -100 0 -100 0 -2 -267 -3 -268 -307 -3 -308 -2
0 270 0 270 -105 0 -105 0 0 -620z"/>
</g>
</svg>
